HIERARCHY
ROOT Hips
{
	OFFSET 0.053599 88.859886 3.107447
	CHANNELS 6 Xposition Yposition Zposition Zrotation Yrotation Xrotation 
	JOINT Spine
	{
		OFFSET -0.000000 8.814246 -2.080107
		CHANNELS 3 Zrotation Yrotation Xrotation
		JOINT Spine1
		{
			OFFSET 0.000000 8.844141 0.000000
			CHANNELS 3 Zrotation Yrotation Xrotation
			JOINT Spine2
			{
				OFFSET -0.000000 11.682268 0.000000
				CHANNELS 3 Zrotation Yrotation Xrotation
				JOINT Spine3
				{
					OFFSET 0.000000 11.746700 0.000000
					CHANNELS 3 Zrotation Yrotation Xrotation
					JOINT Neck
					{
						OFFSET -0.000000 17.658264 -0.000000
						CHANNELS 3 Zrotation Yrotation Xrotation
						JOINT Neck1
						{
							OFFSET -0.000000 5.101515 -0.000000
							CHANNELS 3 Zrotation Yrotation Xrotation
							JOINT Head
							{
								OFFSET 0.000000 5.101515 0.000000
								CHANNELS 3 Zrotation Yrotation Xrotation
								JOINT HeadEnd
								{
									OFFSET 0.000000 11.655085 0.000000
									CHANNELS 3 Zrotation Yrotation Xrotation
									End Site
									{
										OFFSET 0.000000 0.000000 0.000000
									}
								}
							}
						}
					}
					JOINT RightShoulder
					{
						OFFSET -2.625389 11.175210 0.000000
						CHANNELS 3 Zrotation Yrotation Xrotation
						JOINT RightArm
						{
							OFFSET -0.000000 10.434715 -0.000000
							CHANNELS 3 Zrotation Yrotation Xrotation
							JOINT RightForeArm
							{
								OFFSET -0.000000 29.628420 0.000000
								CHANNELS 3 Zrotation Yrotation Xrotation
								JOINT RightHand
								{
									OFFSET -0.000000 22.857611 0.000000
									CHANNELS 3 Zrotation Yrotation Xrotation
									JOINT RightHandThumb1
									{
										OFFSET -2.867323 3.959563 2.944291
										CHANNELS 3 Zrotation Yrotation Xrotation
										JOINT RightHandThumb2
										{
											OFFSET 0.000000 3.350399 0.000000
											CHANNELS 3 Zrotation Yrotation Xrotation
											JOINT RightHandThumb3
											{
												OFFSET 0.000000 3.756509 -0.000000
												CHANNELS 3 Zrotation Yrotation Xrotation
												JOINT RightHandThumb4
												{
													OFFSET 0.000000 3.147345 0.000000
													CHANNELS 3 Zrotation Yrotation Xrotation
													End Site
													{
														OFFSET 0.000000 0.000000 0.000000
													}
												}
											}
										}
									}
									JOINT RightHandIndex1
									{
										OFFSET -0.086752 10.030893 2.345280
										CHANNELS 3 Zrotation Yrotation Xrotation
										JOINT RightHandIndex2
										{
											OFFSET -0.000000 4.061090 0.000000
											CHANNELS 3 Zrotation Yrotation Xrotation
											JOINT RightHandIndex3
											{
												OFFSET -0.000000 3.248873 0.000000
												CHANNELS 3 Zrotation Yrotation Xrotation
												JOINT RightHandIndex4
												{
													OFFSET 0.000000 2.639709 -0.000000
													CHANNELS 3 Zrotation Yrotation Xrotation
													End Site
													{
														OFFSET 0.000000 0.000000 0.000000
													}
												}
											}
										}
									}
									JOINT RightHandMiddle1
									{
										OFFSET 0.104102 9.502952 0.006768
										CHANNELS 3 Zrotation Yrotation Xrotation
										JOINT RightHandMiddle2
										{
											OFFSET 0.000000 4.568727 0.000000
											CHANNELS 3 Zrotation Yrotation Xrotation
											JOINT RightHandMiddle3
											{
												OFFSET 0.000000 3.654981 -0.000000
												CHANNELS 3 Zrotation Yrotation Xrotation
												JOINT RightHandMiddle4
												{
													OFFSET -0.000000 2.741236 -0.000000
													CHANNELS 3 Zrotation Yrotation Xrotation
													End Site
													{
														OFFSET 0.000000 0.000000 0.000000
													}
												}
											}
										}
									}
									JOINT RightHandRing1
									{
										OFFSET 0.086752 8.921708 -2.267442
										CHANNELS 3 Zrotation Yrotation Xrotation
										JOINT RightHandRing2
										{
											OFFSET -0.000000 4.061090 0.000000
											CHANNELS 3 Zrotation Yrotation Xrotation
											JOINT RightHandRing3
											{
												OFFSET 0.000000 3.654981 -0.000000
												CHANNELS 3 Zrotation Yrotation Xrotation
												JOINT RightHandRing4
												{
													OFFSET 0.000000 2.741236 -0.000000
													CHANNELS 3 Zrotation Yrotation Xrotation
													End Site
													{
														OFFSET 0.000000 0.000000 0.000000
													}
												}
											}
										}
									}
									JOINT RightHandPinky1
									{
										OFFSET -0.173504 7.976997 -4.467199
										CHANNELS 3 Zrotation Yrotation Xrotation
										JOINT RightHandPinky2
										{
											OFFSET 0.000000 3.350399 -0.000000
											CHANNELS 3 Zrotation Yrotation Xrotation
											JOINT RightHandPinky3
											{
												OFFSET -0.000000 2.842763 0.000000
												CHANNELS 3 Zrotation Yrotation Xrotation
												JOINT RightHandPinky4
												{
													OFFSET -0.000000 2.639709 0.000000
													CHANNELS 3 Zrotation Yrotation Xrotation
													End Site
													{
														OFFSET 0.000000 0.000000 0.000000
													}
												}
											}
										}
									}
									JOINT RightForeArmEnd
									{
										OFFSET 0.000000 0.000000 0.000000
										CHANNELS 3 Zrotation Yrotation Xrotation
										End Site
										{
											OFFSET 0.000000 0.000000 0.000000
										}
									}
								}
								JOINT RightArmEnd
								{
									OFFSET 0.000000 0.000000 0.000000
									CHANNELS 3 Zrotation Yrotation Xrotation
									End Site
									{
										OFFSET 0.000000 0.000000 0.000000
									}
								}
							}
						}
					}
					JOINT LeftShoulder
					{
						OFFSET 2.625389 11.175210 0.000000
						CHANNELS 3 Zrotation Yrotation Xrotation
						JOINT LeftArm
						{
							OFFSET 0.000000 10.813635 -0.000000
							CHANNELS 3 Zrotation Yrotation Xrotation
							JOINT LeftForeArm
							{
								OFFSET 0.000000 28.724781 0.000000
								CHANNELS 3 Zrotation Yrotation Xrotation
								JOINT LeftHand
								{
									OFFSET 0.644384 25.716167 -0.328871
									CHANNELS 3 Zrotation Yrotation Xrotation
									JOINT LeftHandThumb1
									{
										OFFSET 2.867323 3.959563 2.944291
										CHANNELS 3 Zrotation Yrotation Xrotation
										JOINT LeftHandThumb2
										{
											OFFSET 0.000000 3.350399 0.000000
											CHANNELS 3 Zrotation Yrotation Xrotation
											JOINT LeftHandThumb3
											{
												OFFSET -0.000000 3.756509 0.000000
												CHANNELS 3 Zrotation Yrotation Xrotation
												JOINT LeftHandThumb4
												{
													OFFSET -0.000000 3.100000 0.000000
													CHANNELS 3 Zrotation Yrotation Xrotation
													End Site
													{
														OFFSET 0.000000 0.000000 0.000000
													}
												}
											}
										}
									}
									JOINT LeftHandIndex1
									{
										OFFSET 0.086752 10.030893 2.345280
										CHANNELS 3 Zrotation Yrotation Xrotation
										JOINT LeftHandIndex2
										{
											OFFSET -0.000000 4.061090 -0.000000
											CHANNELS 3 Zrotation Yrotation Xrotation
											JOINT LeftHandIndex3
											{
												OFFSET 0.000000 3.248873 -0.000000
												CHANNELS 3 Zrotation Yrotation Xrotation
												JOINT LeftHandIndex4
												{
													OFFSET 0.000000 2.639709 -0.000000
													CHANNELS 3 Zrotation Yrotation Xrotation
													End Site
													{
														OFFSET 0.000000 0.000000 0.000000
													}
												}
											}
										}
									}
									JOINT LeftHandMiddle1
									{
										OFFSET -0.104102 9.502952 0.006768
										CHANNELS 3 Zrotation Yrotation Xrotation
										JOINT LeftHandMiddle2
										{
											OFFSET -0.000000 4.568727 -0.000000
											CHANNELS 3 Zrotation Yrotation Xrotation
											JOINT LeftHandMiddle3
											{
												OFFSET 0.000000 3.654981 0.000000
												CHANNELS 3 Zrotation Yrotation Xrotation
												JOINT LeftHandMiddle4
												{
													OFFSET 0.000000 2.741236 -0.000000
													CHANNELS 3 Zrotation Yrotation Xrotation
													End Site
													{
														OFFSET 0.000000 0.000000 0.000000
													}
												}
											}
										}
									}
									JOINT LeftHandRing1
									{
										OFFSET -0.086752 8.921708 -2.267442
										CHANNELS 3 Zrotation Yrotation Xrotation
										JOINT LeftHandRing2
										{
											OFFSET 0.000000 4.061090 0.000000
											CHANNELS 3 Zrotation Yrotation Xrotation
											JOINT LeftHandRing3
											{
												OFFSET 0.000000 3.654981 0.000000
												CHANNELS 3 Zrotation Yrotation Xrotation
												JOINT LeftHandRing4
												{
													OFFSET 0.000000 2.741236 0.000000
													CHANNELS 3 Zrotation Yrotation Xrotation
													End Site
													{
														OFFSET 0.000000 0.000000 0.000000
													}
												}
											}
										}
									}
									JOINT LeftHandPinky1
									{
										OFFSET 0.173504 7.976997 -4.467199
										CHANNELS 3 Zrotation Yrotation Xrotation
										JOINT LeftHandPinky2
										{
											OFFSET -0.000000 3.350399 -0.000000
											CHANNELS 3 Zrotation Yrotation Xrotation
											JOINT LeftHandPinky3
											{
												OFFSET 0.000000 2.842763 0.000000
												CHANNELS 3 Zrotation Yrotation Xrotation
												JOINT LeftHandPinky4
												{
													OFFSET -0.000000 2.639709 -0.000000
													CHANNELS 3 Zrotation Yrotation Xrotation
													End Site
													{
														OFFSET 0.000000 0.000000 0.000000
													}
												}
											}
										}
									}
									JOINT LeftForeArmEnd
									{
										OFFSET 0.000000 0.000000 0.000000
										CHANNELS 3 Zrotation Yrotation Xrotation
										End Site
										{
											OFFSET 0.000000 0.000000 0.000000
										}
									}
								}
								JOINT LeftArmEnd
								{
									OFFSET 0.000000 0.000000 0.000000
									CHANNELS 3 Zrotation Yrotation Xrotation
									End Site
									{
										OFFSET 0.000000 0.000000 0.000000
									}
								}
							}
						}
					}
				}
			}
		}
	}
	JOINT RightUpLeg
	{
		OFFSET -11.289943 0.000000 0.000000
		CHANNELS 3 Zrotation Yrotation Xrotation
		JOINT RightLeg
		{
			OFFSET 0.000000 -38.200325 0.000000
			CHANNELS 3 Zrotation Yrotation Xrotation
			JOINT RightFoot
			{
				OFFSET -0.000000 -39.900856 -0.000000
				CHANNELS 3 Zrotation Yrotation Xrotation
				JOINT RightToeBase
				{
					OFFSET 0.000000 0.000000 15.261641
					CHANNELS 3 Zrotation Yrotation Xrotation
					JOINT RightToeBaseEnd
					{
						OFFSET 0.000000 0.000000 7.370709
						CHANNELS 3 Zrotation Yrotation Xrotation
						End Site
						{
							OFFSET 0.000000 0.000000 0.000000
						}
					}
				}
				JOINT RightLegEnd
				{
					OFFSET 0.000000 0.000000 0.000000
					CHANNELS 3 Zrotation Yrotation Xrotation
					End Site
					{
						OFFSET 0.000000 0.000000 0.000000
					}
				}
			}
			JOINT RightUpLegEnd
			{
				OFFSET 0.000000 0.000000 0.000000
				CHANNELS 3 Zrotation Yrotation Xrotation
				End Site
				{
					OFFSET 0.000000 0.000000 0.000000
				}
			}
		}
	}
	JOINT LeftUpLeg
	{
		OFFSET 11.315661 -0.000000 0.000000
		CHANNELS 3 Zrotation Yrotation Xrotation
		JOINT LeftLeg
		{
			OFFSET -0.000000 -38.200325 -0.000000
			CHANNELS 3 Zrotation Yrotation Xrotation
			JOINT LeftFoot
			{
				OFFSET 0.000000 -39.900856 -0.000000
				CHANNELS 3 Zrotation Yrotation Xrotation
				JOINT LeftToeBase
				{
					OFFSET -0.000000 -0.000000 15.261641
					CHANNELS 3 Zrotation Yrotation Xrotation
					JOINT LeftToeBaseEnd
					{
						OFFSET 0.000000 -0.000000 7.539996
						CHANNELS 3 Zrotation Yrotation Xrotation
						End Site
						{
							OFFSET 0.000000 0.000000 0.000000
						}
					}
				}
				JOINT LeftLegEnd
				{
					OFFSET 0.000000 0.000000 0.000000
					CHANNELS 3 Zrotation Yrotation Xrotation
					End Site
					{
						OFFSET 0.000000 0.000000 0.000000
					}
				}
			}
			JOINT LeftUpLegEnd
			{
				OFFSET 0.000000 0.000000 0.000000
				CHANNELS 3 Zrotation Yrotation Xrotation
				End Site
				{
					OFFSET 0.000000 0.000000 0.000000
				}
			}
		}
	}
}
MOTION
Frames: 4
Frame Time: 0.016667
0.206750 88.775337 3.212085 -0.456125 -1.303794 -10.495291 1.080593 0.097930 6.893660 -0.878236 0.407721 2.645221 0.468564 -0.895922 4.599718 -1.106032 0.181417 4.427030 1.453640 0.461906 3.734734 0.173227 1.190719 -3.869102 -0.537013 -0.772553 -20.082167 0.000000 0.000000 0.000000 92.840370 -0.646068 9.630795 68.861877 -23.228683 4.142811 0.103299 16.323458 26.483997 -2.166233 13.173244 -4.469881 16.691517 31.157898 65.165810 -4.931045 -6.162727 -11.042223 -3.500161 -4.048489 -7.568981 0.000000 0.000000 0.000000 -10.643333 -7.251422 11.068110 1.217018 0.534589 0.532335 0.984401 0.077086 0.502238 0.000000 0.000000 0.000000 -9.602118 -1.815738 6.780247 0.043069 0.525718 0.196033 0.655193 0.019385 0.156807 0.000000 0.000000 0.000000 -7.063345 5.841887 2.355553 0.294279 -1.044359 -0.338093 0.350750 -0.052172 -0.202128 0.000000 0.000000 0.000000 -6.195006 14.055893 -3.082194 0.665793 -2.072277 -0.943050 0.629158 -0.035216 -0.811734 0.000000 0.000000 0.000000 0.000000 0.000000 0.000000 0.000000 0.000000 0.000000 -90.306458 0.224737 5.493249 -73.675529 14.636946 -4.349442 -0.033506 -10.688869 53.362267 13.875642 -17.987091 -10.688232 -15.309573 -31.705450 66.638145 3.086581 3.337594 -6.570220 2.142387 2.333730 -4.510133 0.000000 0.000000 0.000000 17.055969 -12.322952 18.479631 -1.323611 0.521357 -0.540391 -1.099797 0.051257 -0.542610 0.000000 0.000000 0.000000 16.625937 -6.687771 11.961338 -1.183432 0.516405 -0.223824 -1.102741 0.022897 -0.164319 0.000000 0.000000 0.000000 12.815612 2.162395 4.619663 -1.819190 -1.052925 0.381101 -2.068419 -0.037759 0.264451 0.000000 0.000000 0.000000 7.374561 12.052431 -3.365420 -3.055296 -2.074453 1.279447 -2.771846 0.029932 1.140891 0.000000 0.000000 0.000000 0.000000 0.000000 0.000000 0.000000 0.000000 0.000000 -0.496029 -9.444593 14.412786 -0.065246 -0.698072 5.411197 -2.588351 -7.554730 17.448490 -0.795222 0.819983 -18.484020 0.000000 0.000000 0.000000 0.000000 0.000000 0.000000 0.000000 0.000000 0.000000 -0.861270 -5.257972 10.029891 0.065672 0.343872 9.299852 3.648430 -0.389308 16.705523 0.425558 -0.493671 -20.238823 0.000000 0.000000 0.000000 0.000000 0.000000 0.000000 0.000000 0.000000 0.000000 
0.201604 88.777214 3.215377 -0.454230 -1.310910 -10.549108 1.093358 0.095105 6.871687 -0.883862 0.413294 2.654432 0.473596 -0.884867 4.638535 -1.115212 0.188510 4.477107 1.410131 0.475494 3.779867 0.180361 1.194474 -3.864431 -0.540530 -0.787863 -20.086853 0.000000 0.000000 0.000000 92.827782 -0.645383 9.634640 68.906471 -22.865013 4.141891 0.110233 16.472410 26.884621 -2.548730 13.117123 -4.287535 16.637857 31.176626 65.224777 -4.868960 -6.058418 -10.884546 -3.450796 -3.977040 -7.452325 0.000000 0.000000 0.000000 -11.053570 -7.173560 11.317802 1.150672 0.534576 0.531264 0.916250 0.077043 0.502908 0.000000 0.000000 0.000000 -10.001302 -1.745875 6.960207 -0.006710 0.526352 0.193948 0.610000 0.020150 0.155997 0.000000 0.000000 0.000000 -7.442030 5.911832 2.433802 0.278756 -1.045606 -0.334843 0.331397 -0.052694 -0.199253 0.000000 0.000000 0.000000 -6.548110 14.132057 -3.086983 0.671763 -2.074877 -0.936799 0.636853 -0.037768 -0.803243 0.000000 0.000000 0.000000 0.000000 0.000000 0.000000 0.000000 0.000000 0.000000 -90.335983 0.247316 5.440469 -73.567245 14.327893 -4.388953 -0.052296 -10.766016 53.922958 14.342456 -17.877001 -10.363695 -15.288977 -31.712738 66.660446 3.070122 3.298195 -6.509531 2.125930 2.305879 -4.467762 0.000000 0.000000 0.000000 17.179720 -12.345106 18.671396 -1.289530 0.524681 -0.524743 -1.076614 0.054014 -0.530251 0.000000 0.000000 0.000000 16.718254 -6.707167 12.126095 -1.167610 0.517733 -0.218262 -1.093542 0.024329 -0.160469 0.000000 0.000000 0.000000 12.856696 2.159748 4.734713 -1.853490 -1.055192 0.376807 -2.103336 -0.039112 0.261974 0.000000 0.000000 0.000000 7.337852 12.080942 -3.292394 -3.152180 -2.076838 1.274471 -2.860394 0.029845 1.137795 0.000000 0.000000 0.000000 0.000000 0.000000 0.000000 0.000000 0.000000 0.000000 -0.497967 -9.446186 14.463448 -0.065445 -0.695989 5.403568 -2.604723 -7.481153 17.460941 -0.794301 0.818124 -18.489819 0.000000 0.000000 0.000000 0.000000 0.000000 0.000000 0.000000 0.000000 0.000000 -0.849539 -5.267879 10.092845 0.065988 0.342737 9.322054 3.646065 -0.381785 16.676275 0.421520 -0.491591 -20.240824 0.000000 0.000000 0.000000 0.000000 0.000000 0.000000 0.000000 0.000000 0.000000 
0.196005 88.779861 3.216497 -0.452012 -1.316307 -10.598892 1.104461 0.091747 6.850082 -0.887657 0.417383 2.664748 0.476503 -0.874288 4.664374 -1.121665 0.195205 4.525300 1.372872 0.492473 3.839738 0.190644 1.200694 -3.852811 -0.544332 -0.804056 -20.089563 0.000000 0.000000 0.000000 92.825157 -0.642408 9.640894 68.917458 -22.536964 4.140731 0.117808 16.612446 27.287878 -2.900491 13.014369 -4.122759 16.595976 31.191204 65.272095 -4.820791 -5.975145 -10.761426 -3.412614 -3.920804 -7.361513 0.000000 0.000000 0.000000 -11.393544 -7.105921 11.527877 1.085575 0.535085 0.528915 0.848070 0.077577 0.502608 0.000000 0.000000 0.000000 -10.334680 -1.686656 7.109915 -0.053679 0.527058 0.191381 0.565815 0.020995 0.154736 0.000000 0.000000 0.000000 -7.764010 5.970870 2.493763 0.268936 -1.046891 -0.330748 0.315299 -0.053386 -0.195792 0.000000 0.000000 0.000000 -6.853360 14.198131 -3.098653 0.685176 -2.077568 -0.927780 0.651356 -0.040948 -0.792107 0.000000 0.000000 0.000000 0.000000 0.000000 0.000000 0.000000 0.000000 0.000000 -90.372841 0.270378 5.391066 -73.446548 14.031951 -4.436081 -0.076556 -10.858262 54.458931 14.723559 -17.736292 -10.086977 -15.277226 -31.717270 66.675049 3.063930 3.274818 -6.472853 2.116973 2.288309 -4.443945 0.000000 0.000000 0.000000 17.267323 -12.359601 18.808498 -1.254762 0.528133 -0.508517 -1.054659 0.056992 -0.516808 0.000000 0.000000 0.000000 16.777119 -6.719976 12.249978 -1.150286 0.519098 -0.212366 -1.084357 0.025847 -0.156422 0.000000 0.000000 0.000000 12.877478 2.160561 4.819465 -1.883646 -1.057369 0.371637 -2.132631 -0.040595 0.259059 0.000000 0.000000 0.000000 7.286942 12.107696 -3.238900 -3.243617 -2.078915 1.267357 -2.944042 0.029028 1.133006 0.000000 0.000000 0.000000 0.000000 0.000000 0.000000 0.000000 0.000000 0.000000 -0.499292 -9.449580 14.518601 -0.065479 -0.694581 5.381178 -2.621558 -7.412938 17.477966 -0.793237 0.816645 -18.496943 0.000000 0.000000 0.000000 0.000000 0.000000 0.000000 0.000000 0.000000 0.000000 -0.840383 -5.289023 10.154387 0.066380 0.341672 9.334673 3.644546 -0.375228 16.653734 0.415999 -0.489325 -20.248163 0.000000 0.000000 0.000000 0.000000 0.000000 0.000000 0.000000 0.000000 0.000000 
0.189659 88.782890 3.216320 -0.448620 -1.320103 -10.647296 1.113525 0.088129 6.832017 -0.890058 0.420412 2.675231 0.477316 -0.863619 4.680781 -1.126142 0.201594 4.569218 1.344974 0.507284 3.910731 0.203532 1.205484 -3.834573 -0.547145 -0.820530 -20.092863 0.000000 0.000000 0.000000 92.833275 -0.637803 9.649779 68.896553 -22.249245 4.145030 0.126492 16.739185 27.661554 -3.211572 12.881221 -3.983602 16.566557 31.201477 65.306770 -4.787087 -5.915000 -10.674734 -3.386076 -3.881051 -7.297883 0.000000 0.000000 0.000000 -11.655196 -7.051126 11.694018 1.022703 0.536318 0.524955 0.781455 0.078881 0.500964 0.000000 0.000000 0.000000 -10.592500 -1.640026 7.226352 -0.098937 0.527981 0.188288 0.522022 0.022007 0.152956 0.000000 0.000000 0.000000 -8.014581 6.016428 2.535178 0.260327 -1.048436 -0.325830 0.298514 -0.054384 -0.191720 0.000000 0.000000 0.000000 -7.091793 14.250701 -3.115471 0.700757 -2.080944 -0.915540 0.667384 -0.045169 -0.778209 0.000000 0.000000 0.000000 0.000000 0.000000 0.000000 0.000000 0.000000 0.000000 -90.416336 0.292994 5.347513 -73.320312 13.756015 -4.472401 -0.104085 -10.960073 54.942974 15.023338 -17.583506 -9.865541 -15.272048 -31.719725 66.683945 3.065120 3.263177 -6.454013 2.113497 2.278421 -4.433678 0.000000 0.000000 0.000000 17.331264 -12.368402 18.897415 -1.219821 0.531659 -0.492435 -1.033142 0.060120 -0.502926 0.000000 0.000000 0.000000 16.816317 -6.728210 12.336403 -1.131017 0.520500 -0.206407 -1.073629 0.027434 -0.152317 0.000000 0.000000 0.000000 12.890765 2.162154 4.875451 -1.906291 -1.059416 0.365729 -2.153360 -0.042190 0.255716 0.000000 0.000000 0.000000 7.236403 12.129326 -3.204914 -3.322881 -2.080827 1.257805 -3.016668 0.027426 1.126279 0.000000 0.000000 0.000000 0.000000 0.000000 0.000000 0.000000 0.000000 0.000000 -0.501385 -9.453751 14.579409 -0.065492 -0.694175 5.347052 -2.637576 -7.352895 17.495983 -0.792525 0.815634 -18.503857 0.000000 0.000000 0.000000 0.000000 0.000000 0.000000 0.000000 0.000000 0.000000 -0.835710 -5.317355 10.216561 0.066785 0.340591 9.338801 3.644832 -0.369012 16.636026 0.409316 -0.487169 -20.258009 0.000000 0.000000 0.000000 0.000000 0.000000 0.000000 0.000000 0.000000 0.000000 
